<svg version="1.1" id="Layer_1" xmlns="http://www.w3.org/2000/svg" xmlns:xlink="http://www.w3.org/1999/xlink" x="0px" y="0px"
	 width="100%" viewBox="0 0 797 512" enable-background="new 0 0 797 512" xml:space="preserve">
<path fill="#FAFAFA" opacity="1.000000" stroke="none" 
	d="
M440.000000,513.000000 
	C293.333344,513.000000 147.166672,513.000000 1.000000,513.000000 
	C1.000000,342.333344 1.000000,171.666672 1.000000,1.000000 
	C266.666656,1.000000 532.333313,1.000000 798.000000,1.000000 
	C798.000000,171.666672 798.000000,342.333344 798.000000,513.000000 
	C678.833313,513.000000 559.666687,513.000000 440.000000,513.000000 
M259.763062,316.100891 
	C259.924164,315.796265 260.085266,315.491608 260.061218,315.189026 
	C260.061218,315.189026 260.239258,315.239929 260.850891,314.992523 
	C269.822723,304.801910 275.409729,292.858337 278.767365,279.833984 
	C283.832306,260.187042 282.069305,240.173416 281.112915,220.310455 
	C280.744415,212.657501 278.469666,204.899109 275.865997,197.616898 
	C273.975311,192.328796 270.116119,187.744522 267.043243,182.880692 
	C267.043243,182.880692 267.135956,182.911209 267.020905,182.212677 
	C264.360565,178.789093 261.700195,175.365494 259.002197,171.998245 
	C259.002197,171.998245 259.060364,171.963470 258.877747,171.350433 
	C257.587830,170.226074 256.297943,169.101715 254.998886,168.001755 
	C254.998886,168.001755 255.022888,167.991425 254.767197,167.454468 
	C254.261520,167.184204 253.755829,166.913940 253.198395,166.758362 
	C253.198395,166.758362 253.318436,166.720734 253.184052,166.178879 
	C252.862106,166.020752 252.540176,165.862640 252.285461,165.785599 
	C252.285461,165.785599 252.303314,165.681793 252.104599,165.052902 
	C250.493500,163.918655 248.882416,162.784393 247.357498,161.757462 
	C247.357498,161.757462 247.308670,161.628738 247.078506,161.022720 
	C235.579865,152.579208 222.850235,146.775192 208.541519,146.293686 
	C189.243286,145.644241 169.887314,145.438522 150.599548,146.176880 
	C136.628769,146.711731 123.642746,151.428635 112.829224,160.871048 
	C112.829224,160.871048 112.833221,160.742798 112.283455,160.842270 
	C112.089172,161.136581 111.894890,161.430893 111.661697,161.647171 
	C111.661697,161.647171 111.574539,161.649780 110.928360,161.776138 
	C107.640831,164.854340 104.353294,167.932541 100.823196,171.152069 
	C100.823196,171.152069 100.800362,171.431885 100.179558,171.760345 
	C93.239586,179.087219 87.868965,187.381897 84.225121,197.463593 
	C84.198807,197.668869 84.172501,197.874130 83.730644,198.659775 
	C82.209312,204.418747 79.578964,210.137299 79.367363,215.944000 
	C78.629822,236.182739 77.781281,256.501099 78.827026,276.693237 
	C79.588898,291.403870 85.518448,304.992004 95.644539,316.150116 
	C95.644539,316.150116 95.667542,316.291687 95.754745,316.953400 
	C97.087906,318.390930 98.421066,319.828461 99.940636,321.029510 
	C99.940636,321.029510 99.727646,321.242340 99.954895,322.038910 
	C100.456268,324.076843 101.365974,326.110474 101.387459,328.153473 
	C101.474716,336.452362 101.093376,344.757935 101.254700,353.053864 
	C101.451492,363.174011 109.702995,367.726776 118.547501,362.758209 
	C123.174805,360.158691 127.658363,357.300507 132.313065,354.753265 
	C138.476074,351.380554 144.228348,346.711731 152.922409,348.051788 
	C168.337860,348.054596 183.790802,348.699005 199.153580,347.800873 
	C207.351959,347.321564 215.394577,344.178223 224.044296,342.193390 
	C224.361282,342.029724 224.678268,341.866089 225.492142,341.723785 
	C225.831604,341.619720 226.076355,341.406769 226.638062,341.047577 
	C226.638062,341.047577 226.983398,340.820374 227.629074,340.851929 
	C228.481903,340.302307 229.334732,339.752686 230.118378,339.089020 
	C230.118378,339.089020 230.117920,339.222412 230.731735,339.215546 
	C231.208984,338.868439 231.686234,338.521332 232.058243,338.095062 
	C232.058243,338.095062 232.106644,338.217560 232.717758,338.185425 
	C233.193054,337.838928 233.668350,337.492401 234.030548,337.051880 
	C234.030548,337.051880 234.103119,337.179779 234.622406,337.126251 
	C234.844971,336.882324 235.067551,336.638397 235.280457,336.106873 
	C235.280457,336.106873 235.334152,336.389618 235.940781,336.300171 
	C236.433472,335.949036 236.926163,335.597900 237.757492,335.203674 
	C237.757492,335.203674 238.026001,334.992889 238.709274,334.897766 
	C240.830627,333.282379 242.951981,331.667023 245.016388,330.003479 
	C245.016388,330.003479 245.029816,330.076874 245.719299,329.979828 
	C249.599426,326.123627 253.479568,322.267395 257.369293,318.337830 
	C257.369293,318.337830 257.440857,318.319214 257.908661,318.205566 
	C258.208099,318.009399 258.343872,317.732819 258.319061,317.310638 
	C258.319061,317.310638 258.380371,317.288177 258.867218,317.148346 
	C259.007538,316.849915 259.147888,316.551514 259.125183,315.995300 
	C259.125183,315.995300 259.258484,316.269531 259.763062,316.100891 
M520.068115,313.100311 
	C520.068115,313.100311 520.089355,313.236115 520.748108,313.115326 
	C521.240784,312.769104 521.733521,312.422882 522.879883,312.156525 
	C523.588440,311.725586 524.297058,311.294617 525.642456,310.875763 
	C526.483337,310.239685 527.324158,309.603638 528.809326,308.788086 
	C529.837952,306.524567 530.866577,304.261078 531.869568,301.296387 
	C530.625427,299.356445 529.457764,297.362152 528.124207,295.485748 
	C521.128479,285.641907 520.560425,285.572418 511.001801,292.998047 
	C511.001801,292.998047 511.006348,293.013916 510.282166,293.142120 
	C492.372528,302.382050 474.926666,296.491058 468.695557,278.994629 
	C468.273376,277.809204 468.891327,276.253357 469.951569,275.000153 
	C490.958801,274.956604 511.966034,274.913025 533.619568,275.023468 
	C534.560974,274.569824 535.502441,274.116180 536.540466,273.549469 
	C536.540466,273.549469 536.650940,273.449921 537.174927,272.979797 
	C539.778320,260.331940 538.546875,248.220322 532.082275,236.916824 
	C532.082275,236.916824 532.172791,236.917221 532.098022,236.379868 
	C531.735657,236.029480 531.373291,235.679077 530.498413,234.827072 
	C528.464417,232.175125 526.430359,229.523178 524.110779,226.284866 
	C523.099121,225.483032 522.087524,224.681183 521.032532,223.972900 
	C521.032532,223.972900 521.120422,223.918961 520.791382,223.328033 
	C516.189514,221.206741 511.587646,219.085449 506.611542,216.878494 
	C506.611542,216.878494 506.229706,216.917953 505.885406,216.248886 
	C503.001526,215.633774 500.143677,214.692368 497.229279,214.460022 
	C484.655487,213.457672 472.636414,214.992722 461.795837,223.453827 
	C461.756226,223.816727 461.716614,224.179611 461.652679,224.633865 
	C461.652679,224.633865 461.560516,224.655029 460.891693,224.287155 
	C456.920898,228.294693 452.950104,232.302246 448.376068,236.529510 
	C436.698395,254.985718 436.962952,282.046783 449.004608,298.005219 
	C449.004608,298.005219 448.964478,298.020050 449.166046,298.656250 
	C451.116425,300.756409 453.066803,302.856567 454.997040,304.999268 
	C454.997040,304.999268 455.041443,304.983826 455.263245,305.511383 
	C455.846497,305.986359 456.429779,306.461304 457.317230,307.541809 
	C462.544128,310.365479 467.771027,313.189148 473.452057,316.443573 
	C474.638275,316.797455 475.824463,317.151337 477.612549,317.875458 
	C478.080902,317.898438 478.549286,317.921387 479.691071,318.287781 
	C481.457367,318.504517 483.223633,318.721222 485.484802,319.135773 
	C485.656525,319.090302 485.828278,319.044830 486.783569,319.289215 
	C496.881927,320.053375 506.891144,320.191437 516.055908,315.086365 
	C516.055908,315.086365 516.066040,315.188110 516.722656,315.078613 
	C517.218079,314.743134 517.713501,314.407654 518.610291,314.083344 
	C518.610291,314.083344 518.999939,313.986298 519.585754,314.104767 
	C519.792175,313.774292 519.998535,313.443787 520.068115,313.100311 
M682.168030,224.798660 
	C682.168030,224.798660 682.321960,224.742203 682.020691,224.220215 
	C681.352356,223.801117 680.684082,223.382019 680.009766,223.007660 
	C680.009766,223.007660 680.045410,222.979904 679.644287,222.438171 
	C661.166931,210.973969 635.801880,211.062500 619.773804,222.701065 
	C619.773804,222.701065 619.719543,222.540085 619.081360,222.761719 
	C617.377625,224.170044 615.673889,225.578369 613.999390,227.002914 
	C613.999390,227.002914 613.987854,226.971725 613.368286,227.217606 
	C609.983948,231.467972 606.599609,235.718338 602.826050,240.649109 
	C601.466125,243.456314 599.766724,246.151901 598.801147,249.088745 
	C592.316589,268.811340 597.008301,299.020538 622.575562,312.182159 
	C631.623962,316.840088 640.913574,320.277435 651.184204,318.938446 
	C658.187317,318.025391 665.071045,316.195770 672.706848,314.687836 
	C677.955139,310.968689 683.203430,307.249512 688.184631,303.266754 
	C688.184631,303.266754 688.488220,303.487427 688.977478,303.249023 
	C689.301819,302.825165 689.626221,302.401337 690.001526,301.997772 
	C690.001526,301.997772 689.976624,301.948853 690.532959,301.643616 
	C691.384033,300.446564 692.235107,299.249512 693.004211,298.020721 
	C693.004211,298.020721 693.058777,298.089691 693.629089,297.722870 
	C699.734802,289.189636 702.496582,279.427673 702.820740,269.180847 
	C703.181335,257.784302 701.276184,246.723282 693.449524,236.846115 
	C692.765259,235.881195 692.080994,234.916290 691.426880,233.325195 
	C688.742920,230.712891 686.058899,228.100571 683.280640,225.648254 
	C683.280640,225.648254 683.464233,225.620239 683.195984,225.122467 
	C682.859680,224.960236 682.523315,224.797989 682.168030,224.798660 
M349.072327,272.001038 
	C347.862427,273.798309 346.652527,275.595551 345.431732,277.504852 
	C345.431732,277.504852 345.328735,277.550293 344.850830,277.963287 
	C342.824890,280.947998 340.798920,283.932739 338.338440,287.079468 
	C338.063049,287.280426 337.938293,287.550873 337.424591,288.247223 
	C336.603088,289.493286 335.781616,290.739349 334.508179,292.179352 
	C334.290100,292.602692 334.072021,293.026062 333.245972,293.876740 
	C328.944275,298.976257 331.123840,305.060608 330.845612,310.715302 
	C330.528809,317.153046 331.434753,317.869049 337.897858,317.882965 
	C360.197784,317.930969 382.497772,317.942322 404.797760,317.949005 
	C411.620758,317.951050 418.444183,317.932281 425.266571,317.851074 
	C431.276123,317.779541 432.287537,316.745819 432.306946,310.944550 
	C432.319763,307.117004 432.303223,303.289307 432.322510,299.461792 
	C432.354187,293.178223 431.451874,292.194275 425.139740,292.233917 
	C408.665375,292.337341 392.191559,292.528198 375.717163,292.615295 
	C373.784851,292.625519 371.850250,292.205048 369.704834,291.286682 
	C389.101379,264.544739 408.528564,237.824890 427.832855,211.016541 
	C429.288055,208.995636 429.867676,206.344238 430.971191,203.057281 
	C430.583160,196.906586 430.195129,190.755905 429.662964,184.350189 
	C429.662964,184.350189 429.397888,184.225525 428.829163,183.757050 
	C426.229034,183.541153 423.628876,183.325272 420.353516,182.957031 
	C419.898193,183.010330 419.442902,183.063629 418.057800,183.001785 
	C412.563141,183.009186 407.067932,182.968430 401.573914,183.032501 
	C380.108124,183.282776 358.642700,183.566223 336.892242,183.672623 
	C336.539185,183.656387 336.242371,183.765930 335.353180,183.980301 
	C334.946045,184.315002 334.538910,184.649719 333.917542,185.735367 
	C333.424622,191.541687 332.735168,197.340286 332.506897,203.156982 
	C332.351105,207.126450 334.122467,209.409622 338.721832,209.329254 
	C352.171143,209.094254 365.626312,209.191635 379.079163,209.164459 
	C383.634583,209.155258 388.190063,209.163025 393.715210,209.163025 
	C387.532928,217.785950 381.919434,225.531296 376.397339,233.341263 
	C370.848267,241.189407 365.390167,249.101852 359.637573,257.086426 
	C359.637573,257.086426 359.574127,257.352631 359.487244,257.468994 
	C359.487244,257.468994 359.392426,257.578949 358.930573,258.014374 
	C357.440735,260.170746 355.950867,262.327087 354.504333,264.571381 
	C354.504333,264.571381 354.406403,264.566986 353.912476,264.969025 
	C352.464569,267.201752 351.016663,269.434509 349.840820,271.889496 
	C349.840820,271.889496 349.605438,271.628723 349.072327,272.001038 
M581.953369,180.218201 
	C581.415405,177.371780 579.586243,176.581635 576.875000,176.717285 
	C573.551331,176.883575 570.204895,176.616592 566.883667,176.806335 
	C563.179199,177.017975 559.492004,177.532089 555.146545,178.186218 
	C554.726746,180.240082 553.950439,182.292542 553.942505,184.348007 
	C553.864441,204.469803 553.833069,224.592560 553.949829,244.714111 
	C554.078186,266.830048 554.399536,288.944855 554.574219,311.060638 
	C554.598877,314.178619 555.224670,317.281921 558.687866,317.401428 
	C565.791626,317.646515 572.922180,317.234833 580.034241,316.923431 
	C580.699768,316.894257 581.312195,315.653625 582.414001,314.287018 
	C582.406006,300.491241 582.447266,286.695190 582.379883,272.899719 
	C582.230408,242.271423 582.026428,211.643402 581.953369,180.218201 
z"/>
<path fill="#22ACFB" opacity="1.000000" stroke="none" 
	d="
M238.026001,334.992889 
	C238.026001,334.992889 237.757492,335.203674 237.233765,335.171265 
	C236.251404,335.555817 235.792786,335.972717 235.334167,336.389618 
	C235.334152,336.389618 235.280457,336.106873 235.008575,336.222961 
	C234.525513,336.619293 234.314316,336.899536 234.103119,337.179779 
	C234.103119,337.179779 234.030548,337.051880 233.763214,337.070740 
	C233.032806,337.465576 232.569717,337.841553 232.106628,338.217560 
	C232.106644,338.217560 232.058243,338.095062 231.785583,338.096497 
	C231.047928,338.472717 230.582916,338.847565 230.117920,339.222412 
	C230.117920,339.222412 230.118378,339.089020 229.827515,339.088562 
	C228.685577,339.665527 227.834488,340.242950 226.983398,340.820374 
	C226.983398,340.820374 226.638062,341.047577 226.186478,341.074860 
	C225.399445,341.192780 225.152908,341.392883 224.995270,341.702454 
	C224.678268,341.866089 224.361282,342.029724 223.323517,342.143494 
	C220.816605,342.345306 218.914642,342.285950 217.263718,342.900757 
	C208.600189,346.127075 199.682816,347.235657 190.466537,347.086731 
	C177.667679,346.879944 164.862503,347.063690 151.600143,347.058929 
	C147.680695,347.242554 143.780899,346.487793 140.845169,347.834595 
	C132.457504,351.682465 124.307510,356.124390 116.361839,360.834991 
	C110.326279,364.413208 103.257942,361.402954 103.100578,354.300964 
	C102.905762,345.508667 103.512161,336.700439 103.414108,327.903076 
	C103.385666,325.352112 104.475349,321.479706 99.727646,321.242340 
	C99.727646,321.242340 99.940636,321.029510 99.900360,320.788239 
	C98.462578,319.128540 97.065056,317.710114 95.667542,316.291687 
	C95.667542,316.291687 95.644539,316.150116 95.754318,315.836243 
	C93.707329,311.948578 91.387703,308.461792 89.423904,304.784943 
	C83.167053,293.070068 79.926895,280.572754 79.977768,267.242065 
	C80.029167,253.773087 79.751411,240.297852 80.089699,226.837219 
	C80.250557,220.436752 81.479065,214.060181 82.298767,207.682404 
	C82.422134,206.722504 83.107475,205.840790 83.268822,204.878632 
	C83.646507,202.626511 83.863899,200.347504 84.146194,198.079391 
	C84.172501,197.874130 84.198807,197.668869 84.723511,197.153656 
	C89.654907,189.934708 94.116905,183.043976 98.497452,176.101837 
	C99.418587,174.642044 100.040543,172.993469 100.800362,171.431885 
	C100.800362,171.431885 100.823196,171.152069 101.296333,171.090485 
	C102.892448,171.224426 104.015419,171.419968 105.131905,171.614365 
	C105.602493,166.476852 108.977654,165.070557 113.703781,165.498779 
	C112.825142,163.910492 112.199844,162.780136 111.574539,161.649780 
	C111.574539,161.649780 111.661697,161.647171 111.969986,161.667053 
	C112.463257,161.372208 112.648239,161.057510 112.833221,160.742798 
	C112.833221,160.742798 112.829224,160.871048 113.167053,160.867798 
	C114.133331,160.666290 114.860893,160.609650 115.375816,160.249222 
	C131.102936,149.240692 149.146439,147.169296 167.563049,147.076981 
	C180.596039,147.011627 193.665466,147.208893 206.656876,148.145477 
	C216.481934,148.853775 226.355316,150.039581 234.942322,156.106216 
	C238.559509,158.661743 243.156876,159.829910 247.308670,161.628738 
	C247.308670,161.628738 247.357498,161.757462 247.335678,162.064880 
	C248.977020,163.475449 250.640167,164.578613 252.303314,165.681793 
	C252.303314,165.681793 252.285461,165.785599 252.299469,166.033630 
	C252.648453,166.428024 252.983444,166.574371 253.318436,166.720734 
	C253.318436,166.720734 253.198395,166.758362 253.272675,167.020203 
	C253.905609,167.518509 254.464249,167.754959 255.022888,167.991425 
	C255.022888,167.991425 254.998886,168.001755 255.029327,168.337830 
	C256.393311,169.770416 257.726837,170.866943 259.060364,171.963470 
	C259.060364,171.963470 259.002197,171.998245 259.006317,172.341568 
	C261.718933,176.093674 264.427429,179.502441 267.135956,182.911209 
	C267.135956,182.911209 267.043243,182.880692 267.062317,183.244965 
	C267.575623,184.798965 267.948761,186.057892 268.582855,187.167740 
	C274.900696,198.225998 279.481201,209.939713 279.913727,222.749008 
	C280.367981,236.201492 280.710876,249.726990 279.829712,263.136963 
	C278.833923,278.291016 274.751923,292.730225 265.425232,305.276367 
	C263.219788,308.243134 261.943176,311.900360 260.239258,315.239929 
	C260.239258,315.239929 260.061218,315.189026 259.876465,315.242432 
	C259.547272,315.620392 259.402893,315.944977 259.258484,316.269531 
	C259.258484,316.269531 259.125183,315.995300 258.926941,316.155762 
	C258.612549,316.640198 258.496460,316.964203 258.380371,317.288177 
	C258.380371,317.288177 258.319061,317.310638 258.035553,317.333130 
	C257.648315,317.676788 257.544586,317.998016 257.440857,318.319214 
	C257.440857,318.319214 257.369293,318.337830 257.011536,318.353058 
	C252.779144,322.271149 248.904480,326.174011 245.029816,330.076874 
	C245.029816,330.076874 245.016388,330.003479 244.676285,330.001495 
	C242.232788,331.663971 240.129395,333.328430 238.026001,334.992889 
M132.669144,273.274506 
	C132.494629,273.593048 132.320114,273.911621 132.182037,274.136810 
	C132.182037,274.136810 132.247681,274.212524 131.484390,274.129120 
	C130.388397,275.625580 129.292419,277.122040 128.273849,278.823242 
	C128.273849,278.823242 128.122330,278.981262 127.399902,279.082336 
	C126.949112,280.077728 126.498322,281.073090 126.009499,282.007996 
	C126.009499,282.007996 126.079979,282.019562 125.384346,282.305298 
	C121.765556,288.433685 122.056389,296.392883 126.166267,300.294525 
	C126.166267,300.294525 126.074341,300.458008 126.077507,301.285858 
	C126.830322,303.351685 126.507637,306.354065 130.716019,306.232880 
	C136.505524,311.578949 143.372955,313.997131 151.217255,313.979401 
	C170.716080,313.935303 190.220871,314.258942 209.712418,313.878784 
	C231.220932,313.459412 244.865631,298.398743 241.781021,273.958221 
	C240.976318,267.582245 237.863632,265.890839 229.237854,266.083130 
	C225.128464,266.174774 221.751892,269.627594 221.191696,274.450684 
	C221.000244,276.099121 221.046188,277.778046 221.029800,279.443481 
	C220.926392,289.957428 217.038834,293.968201 206.581314,294.022827 
	C191.082367,294.103790 175.580795,294.185272 160.085617,293.937408 
	C157.831848,293.901306 154.556183,292.620972 153.605240,290.895691 
	C152.013153,288.007141 153.277145,285.009796 156.313370,282.755127 
	C165.940353,275.606232 175.395035,268.224976 184.901123,260.913757 
	C198.629272,250.355331 212.331055,239.762604 226.070984,229.219589 
	C231.576294,224.995209 235.535629,219.869110 236.028198,212.673279 
	C237.142563,196.393219 224.942505,183.217712 208.443375,183.112930 
	C189.444824,182.992264 170.442230,182.917740 151.447586,183.216751 
	C147.078430,183.285538 142.470673,184.324112 138.426102,186.006409 
	C123.369354,192.269150 116.793861,211.041916 125.205292,223.779190 
	C126.709030,226.056259 130.368851,228.587906 132.622482,228.251450 
	C135.231659,227.861877 138.235840,224.845123 139.514404,222.213776 
	C140.960022,219.238632 140.679153,215.424576 141.818710,211.853500 
	C144.360001,209.574097 146.877396,205.354996 149.446381,205.323349 
	C169.300018,205.078827 189.163666,205.644394 209.607620,206.382339 
	C211.809799,211.147537 210.716049,214.966812 206.431717,218.004425 
	C202.266113,220.957870 198.185486,224.031143 193.450821,226.780228 
	C189.634705,225.408600 190.010681,228.679245 189.071426,230.933060 
	C188.920456,231.118607 188.725616,231.203705 187.717163,231.124329 
	C182.504868,234.713394 175.697861,236.342667 173.002731,243.005600 
	C173.002731,243.005600 173.065857,243.041351 172.422791,243.051239 
	C172.008713,243.462662 171.594635,243.874100 171.221252,244.160965 
	C171.221252,244.160965 171.261337,244.285721 170.559723,244.162720 
	C170.065430,244.818726 169.571136,245.474731 169.034531,246.061111 
	C169.034531,246.061111 169.115097,246.049026 168.613007,246.206741 
	C168.411438,246.483688 168.209854,246.760651 168.001480,246.995605 
	C168.001480,246.995605 168.037872,247.017639 167.289612,246.999420 
	C162.347290,250.352005 157.263107,253.517578 152.511871,257.122040 
	C149.274582,259.577972 146.502930,262.647675 143.433990,265.441284 
	C143.433990,265.441284 143.347672,265.463440 142.771332,265.388855 
	C142.633804,265.717377 142.496277,266.045929 142.202820,266.384308 
	C142.202820,266.384308 142.347870,266.442413 141.600067,266.219238 
	C140.518631,267.270844 139.437210,268.322449 138.381042,269.169922 
	C138.381042,269.169922 138.316772,269.365265 137.607742,269.178101 
	C136.494064,270.238739 135.380386,271.299408 134.180420,272.289215 
	C134.180420,272.289215 134.288513,272.261139 133.710876,272.292725 
	C133.527054,272.609467 133.343246,272.926208 133.115387,273.144806 
	C133.115387,273.144806 133.222763,273.151398 132.669144,273.274506 
z"/>
<path fill="#273A49" opacity="1.000000" stroke="none" 
	d="
M359.892212,256.986115 
	C365.390167,249.101852 370.848267,241.189407 376.397339,233.341263 
	C381.919434,225.531296 387.532928,217.785950 393.715210,209.163025 
	C388.190063,209.163025 383.634583,209.155258 379.079163,209.164459 
	C365.626312,209.191635 352.171143,209.094254 338.721832,209.329254 
	C334.122467,209.409622 332.351105,207.126450 332.506897,203.156982 
	C332.735168,197.340286 333.424622,191.541687 334.484711,185.370239 
	C361.370026,184.995148 387.688293,185.018799 414.005920,184.895630 
	C415.669220,184.887863 417.327148,183.736343 418.987579,183.116928 
	C419.442902,183.063629 419.898193,183.010330 420.949524,183.306061 
	C424.162964,183.845245 426.780426,184.035385 429.397888,184.225525 
	C429.397888,184.225525 429.662964,184.350189 429.485779,184.844681 
	C429.213043,190.239731 428.984528,195.143661 429.109436,200.038605 
	C429.143372,201.368347 430.243500,202.670898 430.854309,203.985916 
	C429.867676,206.344238 429.288055,208.995636 427.832855,211.016541 
	C408.528564,237.824890 389.101379,264.544739 369.841003,291.615906 
	C369.977173,291.945129 370.044159,291.975342 369.779938,291.853149 
	C369.676941,292.149841 369.838196,292.568756 370.006592,293.361481 
	C370.544189,294.438721 371.414795,295.819275 371.556244,295.748230 
	C377.937775,292.542603 384.517273,295.645325 390.993225,295.132416 
	C401.718628,294.282959 412.531952,294.587341 423.274078,293.883789 
	C427.601532,293.600372 429.856750,295.986359 430.487366,299.027161 
	C431.343170,303.154022 431.330139,307.708710 430.470978,311.825562 
	C430.110931,313.550842 426.636688,315.798309 424.560608,315.816711 
	C395.298676,316.075806 366.033630,315.967194 336.769562,316.029724 
	C334.007172,316.035645 332.814270,315.127289 332.978485,312.291077 
	C333.341858,306.014648 333.570404,299.730438 333.853943,293.449402 
	C334.072021,293.026062 334.290100,292.602692 335.098389,292.044312 
	C336.447144,290.569794 337.205658,289.230286 337.964172,287.890808 
	C337.938293,287.550873 338.063049,287.280426 338.920166,286.998413 
	C343.143982,284.852386 345.663879,282.089325 345.328735,277.550293 
	C345.328735,277.550293 345.431732,277.504852 345.812622,277.531433 
	C348.904358,276.487061 350.833984,274.966553 349.605438,271.628723 
	C349.605438,271.628723 349.840820,271.889496 350.066772,271.773651 
	C351.663940,269.294189 353.035187,266.930603 354.406403,264.566986 
	C354.406403,264.566986 354.504333,264.571381 354.854736,264.589233 
	C358.539368,263.419312 359.791382,260.990936 359.392426,257.578949 
	C359.392426,257.578949 359.487244,257.468994 359.697998,257.523895 
	C360.038910,257.577728 360.169037,257.576660 360.299194,257.575562 
	C360.163544,257.379089 360.027863,257.182587 359.892212,256.986115 
z"/>
<path fill="#273A49" opacity="1.000000" stroke="none" 
	d="
M691.396729,233.951385 
	C692.080994,234.916290 692.765259,235.881195 693.728210,237.446487 
	C694.534241,239.757095 694.835083,241.580460 695.624268,243.159851 
	C702.685486,257.291321 702.460693,271.597809 697.541565,286.348358 
	C696.205994,290.352997 691.544983,293.074188 693.058777,298.089691 
	C693.058777,298.089691 693.004211,298.020721 692.684570,298.054596 
	C691.568848,299.375275 690.772766,300.662079 689.976685,301.948853 
	C689.976624,301.948853 690.001526,301.997772 689.663696,302.039642 
	C689.046692,302.550140 688.767456,303.018768 688.488220,303.487427 
	C688.488220,303.487427 688.184631,303.266754 687.928711,303.252441 
	C686.323120,303.636688 684.735352,303.711639 683.669617,304.495941 
	C680.755676,306.640350 678.030762,309.047974 675.295105,311.425171 
	C674.117798,312.448212 673.098938,313.653503 672.008118,314.776001 
	C665.071045,316.195770 658.187317,318.025391 651.184204,318.938446 
	C640.913574,320.277435 631.623962,316.840088 622.575562,312.182159 
	C597.008301,299.020538 592.316589,268.811340 598.801147,249.088745 
	C599.766724,246.151901 601.466125,243.456314 603.348511,240.251007 
	C607.243225,235.559174 610.615540,231.265442 613.987854,226.971710 
	C613.987854,226.971725 613.999390,227.002914 614.350403,226.981567 
	C616.374146,225.486832 618.046814,224.013458 619.719543,222.540085 
	C619.719543,222.540085 619.773804,222.701065 620.095337,222.767441 
	C622.573364,222.068359 624.814453,221.481689 626.872681,220.508453 
	C640.141663,214.234329 653.751526,214.369507 667.510986,218.376755 
	C671.774353,219.618408 675.871948,221.429520 680.045410,222.979904 
	C680.045410,222.979904 680.009766,223.007660 680.062744,223.332916 
	C680.851196,224.019516 681.586548,224.380859 682.321960,224.742203 
	C682.321960,224.742203 682.168030,224.798660 682.252197,225.024902 
	C682.712341,225.374176 683.088318,225.497208 683.464233,225.620239 
	C683.464233,225.620239 683.280640,225.648254 683.301880,225.941528 
	C686.014343,228.807007 688.705566,231.379196 691.396729,233.951385 
M669.929993,247.482452 
	C670.544189,242.526703 667.086487,242.049103 663.504944,241.567886 
	C663.504944,241.567886 663.398071,241.584183 663.568848,240.868134 
	C663.208496,240.342468 662.943054,239.704117 662.473206,239.308441 
	C657.092529,234.777313 650.366943,235.960800 644.237549,235.783798 
	C641.547913,235.706161 638.758911,239.067932 635.451721,241.300888 
	C633.782166,242.578415 631.632141,243.532654 630.520142,245.185318 
	C622.575989,256.992188 620.542236,275.592285 631.208069,287.408752 
	C635.022461,291.634674 641.534424,294.847198 647.226501,295.667419 
	C659.939880,297.499451 669.795593,288.546692 674.810364,276.819672 
	C679.155518,266.829285 676.559814,257.616211 671.581909,248.707947 
	C671.358337,248.307846 670.408203,248.313812 669.899963,248.102432 
	C669.899963,248.102432 669.852905,248.198837 669.929993,247.482452 
z"/>
<path fill="#273A49" opacity="1.000000" stroke="none" 
	d="
M486.000000,318.999359 
	C485.828278,319.044830 485.656525,319.090302 485.062744,318.729858 
	C482.766327,318.197449 480.891968,318.070892 479.017639,317.944336 
	C478.549286,317.921387 478.080902,317.898438 477.290283,317.354126 
	C475.644653,316.559448 474.321289,316.286102 472.997925,316.012787 
	C467.771027,313.189148 462.544128,310.365479 457.112549,306.928680 
	C456.285706,305.871643 455.663574,305.427734 455.041443,304.983826 
	C455.041443,304.983826 454.997040,304.999268 454.993835,304.614990 
	C452.981934,302.160492 450.973206,300.090271 448.964478,298.020050 
	C448.964478,298.020050 449.004608,298.005219 448.993652,297.607056 
	C447.769104,294.327148 446.480042,291.474548 445.355316,288.558563 
	C441.072784,277.455536 440.891968,265.913055 442.917267,254.474045 
	C444.018097,248.256439 446.900482,242.354263 448.979309,236.309814 
	C452.950104,232.302246 456.920898,228.294693 461.329651,224.666199 
	C461.957184,225.048599 462.146820,225.051941 462.336426,225.055298 
	C462.116638,224.884354 461.896820,224.713425 461.677002,224.542511 
	C461.716614,224.179611 461.756226,223.816727 462.385223,223.208984 
	C467.585297,221.303833 472.127625,219.410904 476.820953,218.031815 
	C486.496979,215.188629 496.367920,215.778458 506.229706,216.917953 
	C506.229706,216.917953 506.611542,216.878494 506.951843,217.240875 
	C511.901581,219.708511 516.510986,221.813736 521.120422,223.918961 
	C521.120422,223.918961 521.032532,223.972900 521.062866,224.300125 
	C522.194214,225.375305 523.295288,226.123260 524.396362,226.871231 
	C526.430359,229.523178 528.464417,232.175125 530.793884,235.345795 
	C531.450500,236.215424 531.811646,236.566315 532.172791,236.917206 
	C532.172791,236.917221 532.082275,236.916824 532.067627,237.295731 
	C532.271973,238.964081 532.479797,240.255539 532.711731,241.542648 
	C534.134399,249.436401 535.708435,257.307129 536.907288,265.234650 
	C537.310242,267.899200 536.763611,270.707397 536.650940,273.449921 
	C536.650940,273.449921 536.540466,273.549469 536.155151,273.426453 
	C534.868103,273.494812 533.966248,273.686249 532.592468,273.903931 
	C511.063416,273.947693 490.006317,273.965118 468.567841,273.995911 
	C467.489502,274.889465 466.069336,275.905792 466.205536,276.629181 
	C467.899597,285.628235 472.934723,293.493530 480.805328,296.814392 
	C489.241241,300.373840 499.129852,300.818024 508.024353,295.942505 
	C509.200134,295.297974 510.021088,294.006042 511.006348,293.013916 
	C511.006348,293.013916 511.001801,292.998047 511.400757,292.995911 
	C512.901855,292.750854 514.153198,292.764160 515.081726,292.223297 
	C520.848389,288.864410 521.326355,289.147125 525.009460,294.747131 
	C526.812073,297.487976 529.569763,299.600616 531.895203,301.997589 
	C530.866577,304.261078 529.837952,306.524567 528.127319,308.901123 
	C526.632080,309.630615 525.818848,310.247131 525.005615,310.863647 
	C524.297058,311.294617 523.588440,311.725586 522.216431,312.119385 
	C521.065125,312.466858 520.577209,312.851501 520.089355,313.236115 
	C520.089355,313.236115 520.068115,313.100311 519.878296,313.163513 
	C519.458984,313.479919 519.229492,313.733124 519.000000,313.986328 
	C518.999939,313.986298 518.610291,314.083344 518.076050,314.074005 
	C517.049805,314.439148 516.557922,314.813629 516.066040,315.188110 
	C516.066040,315.188110 516.055908,315.086365 515.680176,315.057983 
	C507.397522,315.909698 499.485291,316.746033 491.587433,317.701752 
	C489.700256,317.930115 487.861206,318.556213 486.000000,318.999359 
M484.795593,255.919052 
	C486.209808,255.979050 487.624054,256.039062 489.631561,256.675842 
	C495.972748,256.774811 502.314056,256.921295 508.655029,256.909515 
	C509.405121,256.908112 510.153595,256.039551 511.430634,255.033325 
	C509.154358,238.237503 491.163055,229.913757 476.934570,239.073608 
	C471.298004,242.702271 467.317261,251.315094 469.645050,256.691895 
	C474.417450,256.494171 479.189850,256.296478 484.795593,255.919052 
z"/>
<path fill="#28353E" opacity="1.000000" stroke="none" 
	d="
M333.549927,293.663086 
	C333.570404,299.730438 333.341858,306.014648 332.978485,312.291077 
	C332.814270,315.127289 334.007172,316.035645 336.769562,316.029724 
	C366.033630,315.967194 395.298676,316.075806 424.560608,315.816711 
	C426.636688,315.798309 430.110931,313.550842 430.470978,311.825562 
	C431.330139,307.708710 431.343170,303.154022 430.487366,299.027161 
	C429.856750,295.986359 427.601532,293.600372 423.274078,293.883789 
	C412.531952,294.587341 401.718628,294.282959 390.993225,295.132416 
	C384.517273,295.645325 377.937775,292.542603 371.556244,295.748230 
	C371.414795,295.819275 370.544189,294.438721 370.223755,293.117523 
	C370.303955,292.324951 370.174072,292.150146 370.044159,291.975342 
	C370.044159,291.975342 369.977173,291.945129 369.946960,291.964661 
	C371.850250,292.205048 373.784851,292.625519 375.717163,292.615295 
	C392.191559,292.528198 408.665375,292.337341 425.139740,292.233917 
	C431.451874,292.194275 432.354187,293.178223 432.322510,299.461792 
	C432.303223,303.289307 432.319763,307.117004 432.306946,310.944550 
	C432.287537,316.745819 431.276123,317.779541 425.266571,317.851074 
	C418.444183,317.932281 411.620758,317.951050 404.797760,317.949005 
	C382.497772,317.942322 360.197784,317.930969 337.897858,317.882965 
	C331.434753,317.869049 330.528809,317.153046 330.845612,310.715302 
	C331.123840,305.060608 328.944275,298.976257 333.549927,293.663086 
z"/>
<path fill="#2E3944" opacity="1.000000" stroke="none" 
	d="
M581.949219,314.975464 
	C581.312195,315.653625 580.699768,316.894257 580.034241,316.923431 
	C572.922180,317.234833 565.791626,317.646515 558.687866,317.401428 
	C555.224670,317.281921 554.598877,314.178619 554.574219,311.060638 
	C554.399536,288.944855 554.078186,266.830048 553.949829,244.714111 
	C553.833069,224.592560 553.864441,204.469803 553.942505,184.348007 
	C553.950439,182.292542 554.726746,180.240082 555.561951,178.029175 
	C555.977356,177.872147 556.103088,178.007797 556.071167,178.475098 
	C556.026184,222.327545 556.007874,265.712708 556.006775,309.097870 
	C556.006653,314.299164 557.583191,316.171814 562.777832,315.914673 
	C568.853271,315.613953 574.896545,314.665497 581.056641,314.218750 
	C581.350647,314.724365 581.613892,314.903046 581.949219,314.975464 
z"/>
<path fill="#33A5E6" opacity="1.000000" stroke="none" 
	d="
M247.193588,161.325729 
	C243.156876,159.829910 238.559509,158.661743 234.942322,156.106216 
	C226.355316,150.039581 216.481934,148.853775 206.656876,148.145477 
	C193.665466,147.208893 180.596039,147.011627 167.563049,147.076981 
	C149.146439,147.169296 131.102936,149.240692 115.375816,160.249222 
	C114.860893,160.609650 114.133331,160.666290 113.129044,160.816116 
	C123.642746,151.428635 136.628769,146.711731 150.599548,146.176880 
	C169.887314,145.438522 189.243286,145.644241 208.541519,146.293686 
	C222.850235,146.775192 235.579865,152.579208 247.193588,161.325729 
z"/>
<path fill="#48ABE0" opacity="1.000000" stroke="none" 
	d="
M260.545105,315.116211 
	C261.943176,311.900360 263.219788,308.243134 265.425232,305.276367 
	C274.751923,292.730225 278.833923,278.291016 279.829712,263.136963 
	C280.710876,249.726990 280.367981,236.201492 279.913727,222.749008 
	C279.481201,209.939713 274.900696,198.225998 268.582855,187.167740 
	C267.948761,186.057892 267.575623,184.798965 267.108032,183.227814 
	C270.116119,187.744522 273.975311,192.328796 275.865997,197.616898 
	C278.469666,204.899109 280.744415,212.657501 281.112915,220.310455 
	C282.069305,240.173416 283.832306,260.187042 278.767365,279.833984 
	C275.409729,292.858337 269.822723,304.801910 260.545105,315.116211 
z"/>
<path fill="#33A5E6" opacity="1.000000" stroke="none" 
	d="
M83.938416,198.369583 
	C83.863899,200.347504 83.646507,202.626511 83.268822,204.878632 
	C83.107475,205.840790 82.422134,206.722504 82.298767,207.682404 
	C81.479065,214.060181 80.250557,220.436752 80.089699,226.837219 
	C79.751411,240.297852 80.029167,253.773087 79.977768,267.242065 
	C79.926895,280.572754 83.167053,293.070068 89.423904,304.784943 
	C91.387703,308.461792 93.707329,311.948578 95.735779,315.905518 
	C85.518448,304.992004 79.588898,291.403870 78.827026,276.693237 
	C77.781281,256.501099 78.629822,236.182739 79.367363,215.944000 
	C79.578964,210.137299 82.209312,204.418747 83.938416,198.369583 
z"/>
<path fill="#33A5E6" opacity="1.000000" stroke="none" 
	d="
M99.841270,321.640625 
	C104.475349,321.479706 103.385666,325.352112 103.414108,327.903076 
	C103.512161,336.700439 102.905762,345.508667 103.100578,354.300964 
	C103.257942,361.402954 110.326279,364.413208 116.361839,360.834991 
	C124.307510,356.124390 132.457504,351.682465 140.845169,347.834595 
	C143.780899,346.487793 147.680695,347.242554 151.579590,347.264282 
	C152.018936,347.490967 151.994476,347.904694 151.994476,347.904694 
	C144.228348,346.711731 138.476074,351.380554 132.313065,354.753265 
	C127.658363,357.300507 123.174805,360.158691 118.547501,362.758209 
	C109.702995,367.726776 101.451492,363.174011 101.254700,353.053864 
	C101.093376,344.757935 101.474716,336.452362 101.387459,328.153473 
	C101.365974,326.110474 100.456268,324.076843 99.841270,321.640625 
z"/>
<path fill="#030C16" opacity="1.000000" stroke="none" 
	d="
M582.181641,314.631226 
	C581.613892,314.903046 581.350647,314.724365 581.089478,313.751129 
	C580.991211,269.037994 580.962952,225.013199 581.162231,180.993347 
	C581.389832,180.998306 581.844727,181.015274 581.844727,181.015274 
	C582.026428,211.643402 582.230408,242.271423 582.379883,272.899719 
	C582.447266,286.695190 582.406006,300.491241 582.181641,314.631226 
z"/>
<path fill="#15222E" opacity="1.000000" stroke="none" 
	d="
M418.522705,183.059357 
	C417.327148,183.736343 415.669220,184.887863 414.005920,184.895630 
	C387.688293,185.018799 361.370026,184.995148 334.591827,184.994781 
	C334.538910,184.649719 334.946045,184.315002 335.983459,184.036774 
	C336.801544,184.007950 336.989349,183.922653 337.177155,183.837341 
	C358.642700,183.566223 380.108124,183.282776 401.573914,183.032501 
	C407.067932,182.968430 412.563141,183.009186 418.522705,183.059357 
z"/>
<path fill="#28353E" opacity="1.000000" stroke="none" 
	d="
M693.343933,297.906281 
	C691.544983,293.074188 696.205994,290.352997 697.541565,286.348358 
	C702.460693,271.597809 702.685486,257.291321 695.624268,243.159851 
	C694.835083,241.580460 694.534241,239.757095 694.005676,237.672150 
	C701.276184,246.723282 703.181335,257.784302 702.820740,269.180847 
	C702.496582,279.427673 699.734802,289.189636 693.343933,297.906281 
z"/>
<path fill="#232E38" opacity="1.000000" stroke="none" 
	d="
M448.677673,236.419662 
	C446.900482,242.354263 444.018097,248.256439 442.917267,254.474045 
	C440.891968,265.913055 441.072784,277.455536 445.355316,288.558563 
	C446.480042,291.474548 447.769104,294.327148 448.980103,297.623901 
	C436.962952,282.046783 436.698395,254.985718 448.677673,236.419662 
z"/>
<path fill="#28353E" opacity="1.000000" stroke="none" 
	d="
M510.644287,293.078033 
	C510.021088,294.006042 509.200134,295.297974 508.024353,295.942505 
	C499.129852,300.818024 489.241241,300.373840 480.805328,296.814392 
	C472.934723,293.493530 467.899597,285.628235 466.205536,276.629181 
	C466.069336,275.905792 467.489502,274.889465 468.582336,274.218201 
	C468.978241,274.427185 469.025543,274.869781 469.025543,274.869781 
	C468.891327,276.253357 468.273376,277.809204 468.695557,278.994629 
	C474.926666,296.491058 492.372528,302.382050 510.644287,293.078033 
z"/>
<path fill="#15222E" opacity="1.000000" stroke="none" 
	d="
M679.844849,222.709045 
	C675.871948,221.429520 671.774353,219.618408 667.510986,218.376755 
	C653.751526,214.369507 640.141663,214.234329 626.872681,220.508453 
	C624.814453,221.481689 622.573364,222.068359 620.014709,222.740753 
	C635.801880,211.062500 661.166931,210.973969 679.844849,222.709045 
z"/>
<path fill="#232E38" opacity="1.000000" stroke="none" 
	d="
M506.057556,216.583420 
	C496.367920,215.778458 486.496979,215.188629 476.820953,218.031815 
	C472.127625,219.410904 467.585297,221.303833 462.600525,222.976440 
	C472.636414,214.992722 484.655487,213.457672 497.229279,214.460022 
	C500.143677,214.692368 503.001526,215.633774 506.057556,216.583420 
z"/>
<path fill="#48ABE0" opacity="1.000000" stroke="none" 
	d="
M152.458435,347.978241 
	C151.994476,347.904694 152.018936,347.490967 152.039490,347.285583 
	C164.862503,347.063690 177.667679,346.879944 190.466537,347.086731 
	C199.682816,347.235657 208.600189,346.127075 217.263718,342.900757 
	C218.914642,342.285950 220.816605,342.345306 223.055130,342.165436 
	C215.394577,344.178223 207.351959,347.321564 199.153580,347.800873 
	C183.790802,348.699005 168.337860,348.054596 152.458435,347.978241 
z"/>
<path fill="#28353E" opacity="1.000000" stroke="none" 
	d="
M536.912964,273.214844 
	C536.763611,270.707397 537.310242,267.899200 536.907288,265.234650 
	C535.708435,257.307129 534.134399,249.436401 532.711731,241.542648 
	C532.479797,240.255539 532.271973,238.964081 532.086975,237.254822 
	C538.546875,248.220322 539.778320,260.331940 536.912964,273.214844 
z"/>
<path fill="#28353E" opacity="1.000000" stroke="none" 
	d="
M531.882385,301.646973 
	C529.569763,299.600616 526.812073,297.487976 525.009460,294.747131 
	C521.326355,289.147125 520.848389,288.864410 515.081726,292.223297 
	C514.153198,292.764160 512.901855,292.750854 511.408569,293.001099 
	C520.560425,285.572418 521.128479,285.641907 528.124207,295.485748 
	C529.457764,297.362152 530.625427,299.356445 531.882385,301.646973 
z"/>
<path fill="#08121B" opacity="1.000000" stroke="none" 
	d="
M469.488556,274.934967 
	C469.025543,274.869781 468.978241,274.427185 468.963745,274.204895 
	C490.006317,273.965118 511.063416,273.947693 532.575989,274.153076 
	C533.031494,274.375885 532.973267,274.869476 532.973267,274.869476 
	C511.966034,274.913025 490.958801,274.956604 469.488556,274.934967 
z"/>
<path fill="#33A5E6" opacity="1.000000" stroke="none" 
	d="
M100.489960,171.596115 
	C100.040543,172.993469 99.418587,174.642044 98.497452,176.101837 
	C94.116905,183.043976 89.654907,189.934708 84.922165,196.915131 
	C87.868965,187.381897 93.239586,179.087219 100.489960,171.596115 
z"/>
<path fill="#232E38" opacity="1.000000" stroke="none" 
	d="
M486.391785,319.144287 
	C487.861206,318.556213 489.700256,317.930115 491.587433,317.701752 
	C499.485291,316.746033 507.397522,315.909698 515.730408,315.067627 
	C506.891144,320.191437 496.881927,320.053375 486.391785,319.144287 
z"/>
<path fill="#28353E" opacity="1.000000" stroke="none" 
	d="
M672.357483,314.731934 
	C673.098938,313.653503 674.117798,312.448212 675.295105,311.425171 
	C678.030762,309.047974 680.755676,306.640350 683.669617,304.495941 
	C684.735352,303.711639 686.323120,303.636688 688.062256,303.384247 
	C683.203430,307.249512 677.955139,310.968689 672.357483,314.731934 
z"/>
<path fill="#33A5E6" opacity="1.000000" stroke="none" 
	d="
M111.251450,161.712952 
	C112.199844,162.780136 112.825142,163.910492 113.703781,165.498779 
	C108.977654,165.070557 105.602493,166.476852 105.131905,171.614365 
	C104.015419,171.419968 102.892448,171.224426 101.417618,171.019806 
	C104.353294,167.932541 107.640831,164.854340 111.251450,161.712952 
z"/>
<path fill="#15222E" opacity="1.000000" stroke="none" 
	d="
M430.912750,203.521606 
	C430.243500,202.670898 429.143372,201.368347 429.109436,200.038605 
	C428.984528,195.143661 429.213043,190.239731 429.557861,184.972198 
	C430.195129,190.755905 430.583160,196.906586 430.912750,203.521606 
z"/>
<path fill="#15222E" opacity="1.000000" stroke="none" 
	d="
M613.678101,227.094666 
	C610.615540,231.265442 607.243225,235.559174 603.543091,239.910812 
	C606.599609,235.718338 609.983948,231.467972 613.678101,227.094666 
z"/>
<path fill="#48ABE0" opacity="1.000000" stroke="none" 
	d="
M245.374557,330.028351 
	C248.904480,326.174011 252.779144,322.271149 257.006744,318.389709 
	C253.479568,322.267395 249.599426,326.123627 245.374557,330.028351 
z"/>
<path fill="#232E38" opacity="1.000000" stroke="none" 
	d="
M520.955933,223.623505 
	C516.510986,221.813736 511.901581,219.708511 507.138977,217.283722 
	C511.587646,219.085449 516.189514,221.206741 520.955933,223.623505 
z"/>
<path fill="#15222E" opacity="1.000000" stroke="none" 
	d="
M581.899048,180.616730 
	C581.844727,181.015274 581.389832,180.998306 580.878174,180.761414 
	C578.573547,179.687698 576.811035,178.216980 574.982117,178.129105 
	C568.701660,177.827362 562.397949,178.009872 556.103088,178.007797 
	C556.103088,178.007797 555.977356,177.872147 555.887329,177.893341 
	C559.492004,177.532089 563.179199,177.017975 566.883667,176.806335 
	C570.204895,176.616592 573.551331,176.883575 576.875000,176.717285 
	C579.586243,176.581635 581.415405,177.371780 581.899048,180.616730 
z"/>
<path fill="#33A5E6" opacity="1.000000" stroke="none" 
	d="
M267.078430,182.561951 
	C264.427429,179.502441 261.718933,176.093674 259.025146,172.313400 
	C261.700195,175.365494 264.360565,178.789093 267.078430,182.561951 
z"/>
<path fill="#15222E" opacity="1.000000" stroke="none" 
	d="
M691.411804,233.638275 
	C688.705566,231.379196 686.014343,228.807007 683.349060,225.861542 
	C686.058899,228.100571 688.742920,230.712891 691.411804,233.638275 
z"/>
<path fill="#28353E" opacity="1.000000" stroke="none" 
	d="
M345.089783,277.756775 
	C345.663879,282.089325 343.143982,284.852386 339.137451,286.917389 
	C340.798920,283.932739 342.824890,280.947998 345.089783,277.756775 
z"/>
<path fill="#28353E" opacity="1.000000" stroke="none" 
	d="
M359.161499,257.796661 
	C359.791382,260.990936 358.539368,263.419312 354.833069,264.545288 
	C355.950867,262.327087 357.440735,260.170746 359.161499,257.796661 
z"/>
<path fill="#232E38" opacity="1.000000" stroke="none" 
	d="
M449.065247,298.338135 
	C450.973206,300.090271 452.981934,302.160492 455.003906,304.593719 
	C453.066803,302.856567 451.116425,300.756409 449.065247,298.338135 
z"/>
<path fill="#48ABE0" opacity="1.000000" stroke="none" 
	d="
M238.367645,334.945312 
	C240.129395,333.328430 242.232788,331.663971 244.704758,330.025574 
	C242.951981,331.667023 240.830627,333.282379 238.367645,334.945312 
z"/>
<path fill="#28353E" opacity="1.000000" stroke="none" 
	d="
M354.159424,264.768005 
	C353.035187,266.930603 351.663940,269.294189 349.930725,271.662537 
	C351.016663,269.434509 352.464569,267.201752 354.159424,264.768005 
z"/>
<path fill="#28353E" opacity="1.000000" stroke="none" 
	d="
M349.338867,271.814880 
	C350.833984,274.966553 348.904358,276.487061 345.818054,277.475403 
	C346.652527,275.595551 347.862427,273.798309 349.338867,271.814880 
z"/>
<path fill="#15222E" opacity="1.000000" stroke="none" 
	d="
M429.113525,183.991287 
	C426.780426,184.035385 424.162964,183.845245 421.287109,183.382233 
	C423.628876,183.325272 426.229034,183.541153 429.113525,183.991287 
z"/>
<path fill="#15222E" opacity="1.000000" stroke="none" 
	d="
M619.400452,222.650909 
	C618.046814,224.013458 616.374146,225.486832 614.335815,226.973450 
	C615.673889,225.578369 617.377625,224.170044 619.400452,222.650909 
z"/>
<path fill="#33A5E6" opacity="1.000000" stroke="none" 
	d="
M252.203949,165.367340 
	C250.640167,164.578613 248.977020,163.475449 247.292587,162.011215 
	C248.882416,162.784393 250.493500,163.918655 252.203949,165.367340 
z"/>
<path fill="#2E3944" opacity="1.000000" stroke="none" 
	d="
M479.354370,318.116058 
	C480.891968,318.070892 482.766327,318.197449 484.815308,318.630981 
	C483.223633,318.721222 481.457367,318.504517 479.354370,318.116058 
z"/>
<path fill="#33A5E6" opacity="1.000000" stroke="none" 
	d="
M95.711143,316.622559 
	C97.065056,317.710114 98.462578,319.128540 99.807159,320.906464 
	C98.421066,319.828461 97.087906,318.390930 95.711143,316.622559 
z"/>
<path fill="#2E3944" opacity="1.000000" stroke="none" 
	d="
M473.224976,316.228180 
	C474.321289,316.286102 475.644653,316.559448 476.989349,317.169006 
	C475.824463,317.151337 474.638275,316.797455 473.224976,316.228180 
z"/>
<path fill="#28353E" opacity="1.000000" stroke="none" 
	d="
M690.254822,301.796265 
	C690.772766,300.662079 691.568848,299.375275 692.725586,298.070465 
	C692.235107,299.249512 691.384033,300.446564 690.254822,301.796265 
z"/>
<path fill="#33A5E6" opacity="1.000000" stroke="none" 
	d="
M258.969055,171.656952 
	C257.726837,170.866943 256.393311,169.770416 255.033905,168.325623 
	C256.297943,169.101715 257.587830,170.226074 258.969055,171.656952 
z"/>
<path fill="#28353E" opacity="1.000000" stroke="none" 
	d="
M337.694397,288.069031 
	C337.205658,289.230286 336.447144,290.569794 335.324371,291.947357 
	C335.781616,290.739349 336.603088,289.493286 337.694397,288.069031 
z"/>
<path fill="#232E38" opacity="1.000000" stroke="none" 
	d="
M524.253540,226.578049 
	C523.295288,226.123260 522.194214,225.375305 521.084473,224.253342 
	C522.087524,224.681183 523.099121,225.483032 524.253540,226.578049 
z"/>
<path fill="#28353E" opacity="1.000000" stroke="none" 
	d="
M533.296387,274.946472 
	C532.973267,274.869476 533.031494,274.375885 533.047974,274.126770 
	C533.966248,273.686249 534.868103,273.494812 536.106873,273.482971 
	C535.502441,274.116180 534.560974,274.569824 533.296387,274.946472 
z"/>
<path fill="#232E38" opacity="1.000000" stroke="none" 
	d="
M525.324036,310.869690 
	C525.818848,310.247131 526.632080,309.630615 527.805176,308.990845 
	C527.324158,309.603638 526.483337,310.239685 525.324036,310.869690 
z"/>
<path fill="#48ABE0" opacity="1.000000" stroke="none" 
	d="
M227.306244,340.836151 
	C227.834488,340.242950 228.685577,339.665527 229.862122,339.145569 
	C229.334732,339.752686 228.481903,340.302307 227.306244,340.836151 
z"/>
<path fill="#15222E" opacity="1.000000" stroke="none" 
	d="
M682.171326,224.481201 
	C681.586548,224.380859 680.851196,224.019516 680.065796,223.310547 
	C680.684082,223.382019 681.352356,223.801117 682.171326,224.481201 
z"/>
<path fill="#232E38" opacity="1.000000" stroke="none" 
	d="
M455.152344,305.247620 
	C455.663574,305.427734 456.285706,305.871643 456.960449,306.625916 
	C456.429779,306.461304 455.846497,305.986359 455.152344,305.247620 
z"/>
<path fill="#28353E" opacity="1.000000" stroke="none" 
	d="
M688.732849,303.368225 
	C688.767456,303.018768 689.046692,302.550140 689.638245,302.029480 
	C689.626221,302.401337 689.301819,302.825165 688.732849,303.368225 
z"/>
<path fill="#28353E" opacity="1.000000" stroke="none" 
	d="
M532.135376,236.648529 
	C531.811646,236.566315 531.450500,236.215424 531.050171,235.596603 
	C531.373291,235.679077 531.735657,236.029480 532.135376,236.648529 
z"/>
<path fill="#232E38" opacity="1.000000" stroke="none" 
	d="
M520.418701,313.175720 
	C520.577209,312.851501 521.065125,312.466858 521.889587,312.079437 
	C521.733521,312.422882 521.240784,312.769104 520.418701,313.175720 
z"/>
<path fill="#232E38" opacity="1.000000" stroke="none" 
	d="
M516.394348,315.133362 
	C516.557922,314.813629 517.049805,314.439148 517.875366,314.068420 
	C517.713501,314.407654 517.218079,314.743134 516.394348,315.133362 
z"/>
<path fill="#48ABE0" opacity="1.000000" stroke="none" 
	d="
M230.424820,339.218994 
	C230.582916,338.847565 231.047928,338.472717 231.838211,338.136078 
	C231.686234,338.521332 231.208984,338.868439 230.424820,339.218994 
z"/>
<path fill="#48ABE0" opacity="1.000000" stroke="none" 
	d="
M232.412201,338.201477 
	C232.569717,337.841553 233.032806,337.465576 233.819763,337.117737 
	C233.668350,337.492401 233.193054,337.838928 232.412201,338.201477 
z"/>
<path fill="#33A5E6" opacity="1.000000" stroke="none" 
	d="
M254.895050,167.722946 
	C254.464249,167.754959 253.905609,167.518509 253.298553,166.962860 
	C253.755829,166.913940 254.261520,167.184204 254.895050,167.722946 
z"/>
<path fill="#48ABE0" opacity="1.000000" stroke="none" 
	d="
M235.637482,336.344910 
	C235.792786,335.972717 236.251404,335.555817 237.064438,335.192810 
	C236.926163,335.597900 236.433472,335.949036 235.637482,336.344910 
z"/>
<path fill="#33A5E6" opacity="1.000000" stroke="none" 
	d="
M112.558334,160.792542 
	C112.648239,161.057510 112.463257,161.372208 111.989441,161.706055 
	C111.894890,161.430893 112.089172,161.136581 112.558334,160.792542 
z"/>
<path fill="#54616B" opacity="1.000000" stroke="none" 
	d="
M337.034698,183.754990 
	C336.989349,183.922653 336.801544,184.007950 336.307800,184.047226 
	C336.242371,183.765930 336.539185,183.656387 337.034698,183.754990 
z"/>
<path fill="#48ABE0" opacity="1.000000" stroke="none" 
	d="
M225.243698,341.713104 
	C225.152908,341.392883 225.399445,341.192780 225.980621,341.093506 
	C226.076355,341.406769 225.831604,341.619720 225.243698,341.713104 
z"/>
<path fill="#48ABE0" opacity="1.000000" stroke="none" 
	d="
M234.362762,337.153015 
	C234.314316,336.899536 234.525513,336.619293 235.013428,336.366760 
	C235.067551,336.638397 234.844971,336.882324 234.362762,337.153015 
z"/>
<path fill="#28353E" opacity="1.000000" stroke="none" 
	d="
M359.764893,257.036255 
	C360.027863,257.182587 360.163544,257.379089 360.299194,257.575562 
	C360.169037,257.576660 360.038910,257.577728 359.741455,257.465698 
	C359.574127,257.352631 359.637573,257.086426 359.764893,257.036255 
z"/>
<path fill="#48ABE0" opacity="1.000000" stroke="none" 
	d="
M257.674744,318.262390 
	C257.544586,317.998016 257.648315,317.676788 258.034058,317.365723 
	C258.343872,317.732819 258.208099,318.009399 257.674744,318.262390 
z"/>
<path fill="#48ABE0" opacity="1.000000" stroke="none" 
	d="
M258.623779,317.218262 
	C258.496460,316.964203 258.612549,316.640198 259.008423,316.284668 
	C259.147888,316.551514 259.007538,316.849915 258.623779,317.218262 
z"/>
<path fill="#48ABE0" opacity="1.000000" stroke="none" 
	d="
M259.510773,316.185211 
	C259.402893,315.944977 259.547272,315.620392 259.969025,315.241394 
	C260.085266,315.491608 259.924164,315.796265 259.510773,316.185211 
z"/>
<path fill="#232E38" opacity="1.000000" stroke="none" 
	d="
M519.292847,314.045532 
	C519.229492,313.733124 519.458984,313.479919 519.946716,313.170013 
	C519.998535,313.443787 519.792175,313.774292 519.292847,314.045532 
z"/>
<path fill="#33A5E6" opacity="1.000000" stroke="none" 
	d="
M253.251251,166.449799 
	C252.983444,166.574371 252.648453,166.428024 252.265839,165.993103 
	C252.540176,165.862640 252.862106,166.020752 253.251251,166.449799 
z"/>
<path fill="#15222E" opacity="1.000000" stroke="none" 
	d="
M683.330078,225.371338 
	C683.088318,225.497208 682.712341,225.374176 682.261719,224.943451 
	C682.523315,224.797989 682.859680,224.960236 683.330078,225.371338 
z"/>
<path fill="#F3F9F9" opacity="1.000000" stroke="none" 
	d="
M126.074341,300.458008 
	C126.074341,300.458008 126.166267,300.294525 126.080963,299.816040 
	C123.190895,293.551086 124.318153,287.783783 126.079979,282.019562 
	C126.079979,282.019562 126.009499,282.007996 126.312347,281.887878 
	C127.117569,280.838898 127.619942,279.910095 128.122330,278.981262 
	C128.122330,278.981262 128.273849,278.823242 128.541260,278.558167 
	C129.955002,276.932861 131.101334,275.572693 132.247681,274.212524 
	C132.247681,274.212524 132.182037,274.136810 132.437805,274.115143 
	C132.869980,273.779449 133.046371,273.465424 133.222763,273.151398 
	C133.222763,273.151398 133.115387,273.144806 133.415695,273.150879 
	C133.906845,272.858368 134.097687,272.559753 134.288513,272.261139 
	C134.288513,272.261139 134.180420,272.289215 134.554489,272.304810 
	C136.057953,271.335388 137.187363,270.350311 138.316772,269.365265 
	C138.316772,269.365265 138.381042,269.169922 138.686676,269.227722 
	C140.110840,268.337860 141.229355,267.390137 142.347870,266.442413 
	C142.347870,266.442413 142.202820,266.384308 142.530060,266.332153 
	C143.020767,266.007812 143.184219,265.735626 143.347672,265.463440 
	C143.347672,265.463440 143.433990,265.441284 143.797226,265.397156 
	C152.119598,259.241241 160.078735,253.129440 168.037872,247.017639 
	C168.037872,247.017639 168.001480,246.995605 168.263733,246.949890 
	C168.722351,246.619141 168.918732,246.334091 169.115112,246.049042 
	C169.115097,246.049026 169.034531,246.061111 169.355484,246.034546 
	C170.204742,245.433899 170.733047,244.859818 171.261337,244.285721 
	C171.261337,244.285721 171.221252,244.160965 171.503082,244.206009 
	C172.211899,243.847824 172.638870,243.444580 173.065857,243.041351 
	C173.065857,243.041351 173.002731,243.005600 173.355072,242.959015 
	C178.633942,239.004425 183.560440,235.096390 188.486938,231.188354 
	C188.725616,231.203705 188.920456,231.118607 189.463486,230.673615 
	C191.259552,229.293381 192.663544,228.172592 194.067551,227.051804 
	C198.185486,224.031143 202.266113,220.957870 206.431717,218.004425 
	C210.716049,214.966812 211.809799,211.147537 209.144226,205.846573 
	C206.684906,204.568604 204.695343,203.202393 202.692047,203.181915 
	C185.036591,203.001373 167.377350,202.932297 149.722366,203.122513 
	C144.098129,203.183105 141.613571,206.176208 141.149017,211.975327 
	C140.679153,215.424576 140.960022,219.238632 139.514404,222.213776 
	C138.235840,224.845123 135.231659,227.861877 132.622482,228.251450 
	C130.368851,228.587906 126.709030,226.056259 125.205292,223.779190 
	C116.793861,211.041916 123.369354,192.269150 138.426102,186.006409 
	C142.470673,184.324112 147.078430,183.285538 151.447586,183.216751 
	C170.442230,182.917740 189.444824,182.992264 208.443375,183.112930 
	C224.942505,183.217712 237.142563,196.393219 236.028198,212.673279 
	C235.535629,219.869110 231.576294,224.995209 226.070984,229.219589 
	C212.331055,239.762604 198.629272,250.355331 184.901123,260.913757 
	C175.395035,268.224976 165.940353,275.606232 156.313370,282.755127 
	C153.277145,285.009796 152.013153,288.007141 153.605240,290.895691 
	C154.556183,292.620972 157.831848,293.901306 160.085617,293.937408 
	C175.580795,294.185272 191.082367,294.103790 206.581314,294.022827 
	C217.038834,293.968201 220.926392,289.957428 221.029800,279.443481 
	C221.046188,277.778046 221.000244,276.099121 221.191696,274.450684 
	C221.751892,269.627594 225.128464,266.174774 229.237854,266.083130 
	C237.863632,265.890839 240.976318,267.582245 241.781021,273.958221 
	C244.865631,298.398743 231.220932,313.459412 209.712418,313.878784 
	C190.220871,314.258942 170.716080,313.935303 151.217255,313.979401 
	C143.372955,313.997131 136.505524,311.578949 130.328644,305.753479 
	C128.652298,303.668701 127.363319,302.063354 126.074341,300.458008 
z"/>
<path fill="#369FDA" opacity="1.000000" stroke="none" 
	d="
M141.483856,211.914413 
	C141.613571,206.176208 144.098129,203.183105 149.722366,203.122513 
	C167.377350,202.932297 185.036591,203.001373 202.692047,203.181915 
	C204.695343,203.202393 206.684906,204.568604 208.852509,205.634888 
	C189.163666,205.644394 169.300018,205.078827 149.446381,205.323349 
	C146.877396,205.354996 144.360001,209.574097 141.483856,211.914413 
z"/>
<path fill="#369FDA" opacity="1.000000" stroke="none" 
	d="
M167.663742,247.008530 
	C160.078735,253.129440 152.119598,259.241241 143.841766,265.397980 
	C146.502930,262.647675 149.274582,259.577972 152.511871,257.122040 
	C157.263107,253.517578 162.347290,250.352005 167.663742,247.008530 
z"/>
<path fill="#369FDA" opacity="1.000000" stroke="none" 
	d="
M188.102051,231.156342 
	C183.560440,235.096390 178.633942,239.004425 173.372864,242.990631 
	C175.697861,236.342667 182.504868,234.713394 188.102051,231.156342 
z"/>
<path fill="#369FDA" opacity="1.000000" stroke="none" 
	d="
M125.732162,282.162415 
	C124.318153,287.783783 123.190895,293.551086 126.016190,299.748230 
	C122.056389,296.392883 121.765556,288.433685 125.732162,282.162415 
z"/>
<path fill="#369FDA" opacity="1.000000" stroke="none" 
	d="
M126.075920,300.871948 
	C127.363319,302.063354 128.652298,303.668701 130.031067,305.601501 
	C126.507637,306.354065 126.830322,303.351685 126.075920,300.871948 
z"/>
<path fill="#369FDA" opacity="1.000000" stroke="none" 
	d="
M193.759186,226.916016 
	C192.663544,228.172592 191.259552,229.293381 189.523544,230.520294 
	C190.010681,228.679245 189.634705,225.408600 193.759186,226.916016 
z"/>
<path fill="#369FDA" opacity="1.000000" stroke="none" 
	d="
M131.866028,274.170837 
	C131.101334,275.572693 129.955002,276.932861 128.502548,278.455780 
	C129.292419,277.122040 130.388397,275.625580 131.866028,274.170837 
z"/>
<path fill="#369FDA" opacity="1.000000" stroke="none" 
	d="
M141.973969,266.330811 
	C141.229355,267.390137 140.110840,268.337860 138.674042,269.329834 
	C139.437210,268.322449 140.518631,267.270844 141.973969,266.330811 
z"/>
<path fill="#369FDA" opacity="1.000000" stroke="none" 
	d="
M137.962250,269.271667 
	C137.187363,270.350311 136.057953,271.335388 134.597626,272.340271 
	C135.380386,271.299408 136.494064,270.238739 137.962250,269.271667 
z"/>
<path fill="#369FDA" opacity="1.000000" stroke="none" 
	d="
M127.761116,279.031799 
	C127.619942,279.910095 127.117569,280.838898 126.331360,281.918091 
	C126.498322,281.073090 126.949112,280.077728 127.761116,279.031799 
z"/>
<path fill="#369FDA" opacity="1.000000" stroke="none" 
	d="
M170.910522,244.224213 
	C170.733047,244.859818 170.204742,245.433899 169.376648,246.069366 
	C169.571136,245.474731 170.065430,244.818726 170.910522,244.224213 
z"/>
<path fill="#369FDA" opacity="1.000000" stroke="none" 
	d="
M172.744324,243.046295 
	C172.638870,243.444580 172.211899,243.847824 171.482742,244.268295 
	C171.594635,243.874100 172.008713,243.462662 172.744324,243.046295 
z"/>
<path fill="#369FDA" opacity="1.000000" stroke="none" 
	d="
M133.999695,272.276917 
	C134.097687,272.559753 133.906845,272.858368 133.437714,273.199951 
	C133.343246,272.926208 133.527054,272.609467 133.999695,272.276917 
z"/>
<path fill="#369FDA" opacity="1.000000" stroke="none" 
	d="
M132.945953,273.212952 
	C133.046371,273.465424 132.869980,273.779449 132.419586,274.161804 
	C132.320114,273.911621 132.494629,273.593048 132.945953,273.212952 
z"/>
<path fill="#369FDA" opacity="1.000000" stroke="none" 
	d="
M143.059509,265.426147 
	C143.184219,265.735626 143.020767,266.007812 142.608032,266.327240 
	C142.496277,266.045929 142.633804,265.717377 143.059509,265.426147 
z"/>
<path fill="#369FDA" opacity="1.000000" stroke="none" 
	d="
M168.864059,246.127899 
	C168.918732,246.334091 168.722351,246.619141 168.267120,246.970886 
	C168.209854,246.760651 168.411438,246.483688 168.864059,246.127899 
z"/>
<path fill="#FAFAFA" opacity="1.000000" stroke="none" 
	d="
M369.779938,291.853149 
	C370.174072,292.150146 370.303955,292.324951 370.216644,292.743713 
	C369.838196,292.568756 369.676941,292.149841 369.779938,291.853149 
z"/>
<path fill="#F7F7F8" opacity="1.000000" stroke="none" 
	d="
M674.058838,276.989990 
	C669.795593,288.546692 659.939880,297.499451 647.226501,295.667419 
	C641.534424,294.847198 635.022461,291.634674 631.208069,287.408752 
	C620.542236,275.592285 622.575989,256.992188 630.520142,245.185318 
	C631.632141,243.532654 633.782166,242.578415 636.098633,241.027130 
	C645.776978,236.307617 654.649292,236.963531 663.398071,241.584183 
	C663.398071,241.584183 663.504944,241.567886 663.725525,241.854233 
	C665.915039,244.159988 667.883972,246.179413 669.852905,248.198837 
	C669.852905,248.198837 669.899963,248.102432 669.936523,248.467072 
	C671.414551,252.329666 673.704590,255.733826 674.103882,259.346954 
	C674.745789,265.155396 674.138367,271.101837 674.058838,276.989990 
z"/>
<path fill="#232E38" opacity="1.000000" stroke="none" 
	d="
M663.483459,241.226166 
	C654.649292,236.963531 645.776978,236.307617 636.380371,240.810684 
	C638.758911,239.067932 641.547913,235.706161 644.237549,235.783798 
	C650.366943,235.960800 657.092529,234.777313 662.473206,239.308441 
	C662.943054,239.704117 663.208496,240.342468 663.483459,241.226166 
z"/>
<path fill="#232E38" opacity="1.000000" stroke="none" 
	d="
M674.434570,276.904846 
	C674.138367,271.101837 674.745789,265.155396 674.103882,259.346954 
	C673.704590,255.733826 671.414551,252.329666 669.884766,248.481186 
	C670.408203,248.313812 671.358337,248.307846 671.581909,248.707947 
	C676.559814,257.616211 679.155518,266.829285 674.434570,276.904846 
z"/>
<path fill="#232E38" opacity="1.000000" stroke="none" 
	d="
M669.891479,247.840637 
	C667.883972,246.179413 665.915039,244.159988 663.742310,241.905655 
	C667.086487,242.049103 670.544189,242.526703 669.891479,247.840637 
z"/>
<path fill="#F5F6F7" opacity="1.000000" stroke="none" 
	d="
M489.038269,256.099060 
	C487.624054,256.039062 486.209808,255.979050 483.918152,255.956879 
	C478.378662,256.037445 473.716614,256.080200 469.054535,256.122955 
	C467.317261,251.315094 471.298004,242.702271 476.934570,239.073608 
	C491.163055,229.913757 509.154358,238.237503 510.768066,255.221756 
	C503.083099,255.639816 496.060699,255.869446 489.038269,256.099060 
z"/>
<path fill="#08121B" opacity="1.000000" stroke="none" 
	d="
M489.334900,256.387451 
	C496.060699,255.869446 503.083099,255.639816 510.504181,255.491562 
	C510.153595,256.039551 509.405121,256.908112 508.655029,256.909515 
	C502.314056,256.921295 495.972748,256.774811 489.334900,256.387451 
z"/>
<path fill="#08121B" opacity="1.000000" stroke="none" 
	d="
M469.349792,256.407410 
	C473.716614,256.080200 478.378662,256.037445 483.501495,256.046753 
	C479.189850,256.296478 474.417450,256.494171 469.349792,256.407410 
z"/>
<path fill="#232E38" opacity="1.000000" stroke="none" 
	d="
M461.664856,224.588181 
	C461.896820,224.713425 462.116638,224.884354 462.336426,225.055298 
	C462.146820,225.051941 461.957184,225.048599 461.664062,224.850128 
	C461.560516,224.655029 461.652679,224.633865 461.664856,224.588181 
z"/>
<path fill="#273A49" opacity="1.000000" stroke="none" 
	d="
M556.071167,178.475098 
	C562.397949,178.009872 568.701660,177.827362 574.982117,178.129105 
	C576.811035,178.216980 578.573547,179.687698 580.650574,180.756470 
	C580.962952,225.013199 580.991211,269.037994 580.986572,313.530396 
	C574.896545,314.665497 568.853271,315.613953 562.777832,315.914673 
	C557.583191,316.171814 556.006653,314.299164 556.006775,309.097870 
	C556.007874,265.712708 556.026184,222.327545 556.071167,178.475098 
z"/>
</svg>