<svg xmlns="http://www.w3.org/2000/svg" xmlns:xlink="http://www.w3.org/1999/xlink" width="500" zoomAndPan="magnify" viewBox="0 0 375 374.999991" height="500" preserveAspectRatio="xMidYMid meet" version="1.2"><defs/><g id="fa2363fc4a"><g style="fill:#0f776f;fill-opacity:1;"><g transform="translate(160.799819, 237.286641)"><path style="stroke:none" d="M 2.265625 10.109375 C 1.429688 10.109375 0.789062 9.769531 0.34375 9.09375 C -0.0390625 8.488281 -0.140625 7.878906 0.046875 7.265625 C 0.242188 6.660156 0.53125 6.09375 0.90625 5.5625 C 2.945312 1.851562 5.347656 -1.585938 8.109375 -4.765625 C 10.878906 -7.953125 13.742188 -11.019531 16.703125 -13.96875 L 44.1875 -42.265625 C 45.632812 -43.703125 47.285156 -45.421875 49.140625 -47.421875 C 50.992188 -49.429688 52.734375 -51.515625 54.359375 -53.671875 C 55.984375 -55.835938 57.175781 -57.828125 57.9375 -59.640625 C 58.320312 -60.859375 58.359375 -61.769531 58.046875 -62.375 C 57.742188 -62.976562 56.953125 -63.429688 55.671875 -63.734375 C 55.210938 -63.890625 54.832031 -63.96875 54.53125 -63.96875 C 54.300781 -63.96875 54.070312 -63.96875 53.84375 -63.96875 C 53.625 -63.96875 53.4375 -63.96875 53.28125 -63.96875 C 53.132812 -63.96875 52.960938 -63.96875 52.765625 -63.96875 C 52.578125 -63.96875 52.410156 -63.96875 52.265625 -63.96875 C 51.804688 -63.96875 51.460938 -63.925781 51.234375 -63.84375 C 46.085938 -63.09375 41.070312 -62.050781 36.1875 -60.71875 C 31.300781 -59.394531 26.546875 -57.519531 21.921875 -55.09375 L 20.5625 -54.421875 C 20.488281 -54.347656 20.257812 -54.3125 19.875 -54.3125 C 19.425781 -54.3125 19.085938 -54.460938 18.859375 -54.765625 C 18.328125 -55.367188 18.441406 -55.894531 19.203125 -56.34375 C 20.484375 -57.632812 22.601562 -58.90625 25.5625 -60.15625 C 28.519531 -61.40625 31.773438 -62.539062 35.328125 -63.5625 C 38.890625 -64.582031 42.28125 -65.394531 45.5 -66 C 48.71875 -66.613281 51.273438 -66.921875 53.171875 -66.921875 C 53.847656 -66.921875 54.523438 -66.878906 55.203125 -66.796875 C 55.890625 -66.722656 56.578125 -66.570312 57.265625 -66.34375 C 60.816406 -65.207031 62.023438 -62.820312 60.890625 -59.1875 C 60.441406 -57.820312 59.628906 -56.25 58.453125 -54.46875 C 57.273438 -52.695312 55.925781 -50.898438 54.40625 -49.078125 C 52.894531 -47.265625 51.398438 -45.5625 49.921875 -43.96875 C 48.453125 -42.375 47.222656 -41.085938 46.234375 -40.109375 L 16.703125 -9.765625 C 15.941406 -9.015625 14.914062 -7.957031 13.625 -6.59375 C 12.34375 -5.226562 11.035156 -3.726562 9.703125 -2.09375 C 8.378906 -0.46875 7.207031 1.078125 6.1875 2.546875 C 5.164062 4.023438 4.539062 5.296875 4.3125 6.359375 C 5.445312 6.285156 6.582031 5.984375 7.71875 5.453125 C 8.25 5.222656 8.742188 4.992188 9.203125 4.765625 C 9.660156 4.546875 10.148438 4.359375 10.671875 4.203125 C 12.191406 3.523438 13.707031 2.84375 15.21875 2.15625 C 16.738281 1.476562 18.253906 0.796875 19.765625 0.109375 C 21.285156 -0.566406 22.820312 -1.242188 24.375 -1.921875 C 25.925781 -2.609375 27.457031 -3.253906 28.96875 -3.859375 C 33.507812 -5.828125 38.144531 -7.378906 42.875 -8.515625 C 47.613281 -9.648438 52.410156 -10.675781 57.265625 -11.59375 C 57.335938 -11.664062 57.597656 -11.703125 58.046875 -11.703125 C 58.429688 -11.703125 58.660156 -11.664062 58.734375 -11.59375 C 59.191406 -11.4375 59.457031 -11.054688 59.53125 -10.453125 C 59.757812 -9.992188 59.570312 -9.578125 58.96875 -9.203125 C 58.664062 -9.128906 58.398438 -9.050781 58.171875 -8.96875 C 57.941406 -8.894531 57.710938 -8.820312 57.484375 -8.75 C 57.179688 -8.675781 56.894531 -8.597656 56.625 -8.515625 C 56.363281 -8.441406 56.082031 -8.367188 55.78125 -8.296875 L 46.359375 -6.359375 C 42.941406 -5.597656 39.601562 -4.628906 36.34375 -3.453125 C 33.09375 -2.285156 29.878906 -1.019531 26.703125 0.34375 C 24.429688 1.320312 22.15625 2.300781 19.875 3.28125 C 17.601562 4.269531 15.332031 5.296875 13.0625 6.359375 C 12.300781 6.660156 11.5625 6.960938 10.84375 7.265625 C 10.125 7.566406 9.390625 7.910156 8.640625 8.296875 C 7.878906 8.597656 7.140625 8.878906 6.421875 9.140625 C 5.703125 9.410156 4.925781 9.617188 4.09375 9.765625 C 3.9375 9.847656 3.78125 9.890625 3.625 9.890625 C 3.476562 9.890625 3.332031 9.925781 3.1875 10 C 2.957031 10.070312 2.648438 10.109375 2.265625 10.109375 Z M 2.265625 10.109375 "/></g></g></g></svg>